<svg width="20" height="20" viewBox="0 0 24 24" fill="none" xmlns="http://www.w3.org/2000/svg">
  <path d="M12 2C13.1 2 14 2.9 14 4C14 4.74 13.6 5.39 13 5.73V7C13 10.5 16 11.66 16 15V16H8V15C8 11.66 11 10.5 11 7V5.73C10.4 5.39 10 4.74 10 4C10 2.9 10.9 2 12 2ZM21 19V20H3V19L5 17V11.5C5 7.5 7.91 4.1 11.5 4.02C11.66 4.01 11.83 4 12 4C12.17 4 12.34 4.01 12.5 4.02C16.09 4.1 19 7.5 19 11.5V17L21 19ZM14 21C14 22.1 13.1 23 12 23S10 22.1 10 21" stroke="currentColor" stroke-width="2" stroke-linecap="round" stroke-linejoin="round"/>
</svg>
