<?xml version="1.0" encoding="UTF-8"?>
<svg width="256" height="256" viewBox="0 0 256 256" fill="none" xmlns="http://www.w3.org/2000/svg">
  <defs>
    <linearGradient id="g1" x1="0" y1="0" x2="1" y2="1">
      <stop offset="0%" stop-color="#00FFA3"/>
      <stop offset="100%" stop-color="#DC1FFF"/>
    </linearGradient>
  </defs>
  <g>
    <path d="M 45 62 c 2 -2 5 -4 9 -4 h 155 c 4 0 6 5 3 8 l -28 28 c -2 2 -5 4 -9 4 H 20 c -4 0 -6 -5 -3 -8 l 28 -28 z" fill="url(#g1)"/>
    <path d="M 45 119 c 2 -2 5 -4 9 -4 h 155 c 4 0 6 5 3 8 l -28 28 c -2 2 -5 4 -9 4 H 20 c -4 0 -6 -5 -3 -8 l 28 -28 z" transform="translate(0,18)" fill="url(#g1)"/>
    <path d="M 45 176 c 2 -2 5 -4 9 -4 h 155 c 4 0 6 5 3 8 l -28 28 c -2 2 -5 4 -9 4 H 20 c -4 0 -6 -5 -3 -8 l 28 -28 z" transform="translate(0,36)" fill="url(#g1)"/>
  </g>
</svg>
